<svg width="64" height="64" viewBox="0 0 64 64" fill="none" xmlns="http://www.w3.org/2000/svg">
<path d="M39.8749 33.0541C39.4709 34.7253 37.5619 35.9064 33.7437 38.2685C30.0525 40.5517 28.2072 41.6936 26.7197 41.2346C26.1049 41.0448 25.5447 40.6845 25.0929 40.188C24 38.9874 24 36.6586 24 32.0013C24 27.344 24 25.0151 25.0929 23.8145C25.5447 23.3181 26.1049 22.9578 26.7197 22.768C28.2072 22.3091 30.0525 23.4508 33.7437 25.7342C37.5619 28.0962 39.4709 29.2773 39.8749 30.9485C40.0416 31.6384 40.0416 32.3642 39.8749 33.0541Z" stroke="#0370F0" stroke-width="3" stroke-linejoin="round"/>
<path d="M6.66406 32.0013C6.66406 20.0591 6.66406 14.0879 10.374 10.3779C14.084 6.66797 20.0552 6.66797 31.9974 6.66797C43.9395 6.66797 49.9107 6.66797 53.6209 10.3779C57.3307 14.0879 57.3307 20.0591 57.3307 32.0013C57.3307 43.9434 57.3307 49.9146 53.6209 53.6248C49.9107 57.3346 43.9395 57.3346 31.9974 57.3346C20.0552 57.3346 14.084 57.3346 10.374 53.6248C6.66406 49.9146 6.66406 43.9434 6.66406 32.0013Z" stroke="#0370F0" stroke-width="3"/>
</svg>
