<svg width="64" height="64" viewBox="0 0 64 64" fill="none" xmlns="http://www.w3.org/2000/svg">
<path d="M18.6641 18.6654C18.6641 15.1291 20.0688 11.7378 22.5693 9.23727C25.0698 6.73679 28.4612 5.33203 31.9974 5.33203C35.5336 5.33203 38.925 6.73679 41.4255 9.23727C43.926 11.7378 45.3307 15.1291 45.3307 18.6654V45.332C45.3307 48.8682 43.926 52.2596 41.4255 54.7601C38.925 57.2606 35.5336 58.6654 31.9974 58.6654C28.4612 58.6654 25.0698 57.2606 22.5693 54.7601C20.0688 52.2596 18.6641 48.8682 18.6641 45.332V18.6654Z" stroke="#0370F0" stroke-width="3" stroke-linecap="round" stroke-linejoin="round"/>
<path d="M27.8281 18.6667C27.8281 19.7717 28.2671 20.8315 29.0485 21.6129C29.8299 22.3943 30.8897 22.8333 31.9948 22.8333C33.0999 22.8333 34.1597 22.3943 34.9411 21.6129C35.7225 20.8315 36.1615 19.7717 36.1615 18.6667C36.1615 17.5616 35.7225 16.5018 34.9411 15.7204C34.1597 14.939 33.0999 14.5 31.9948 14.5C30.8897 14.5 29.8299 14.939 29.0485 15.7204C28.2671 16.5018 27.8281 17.5616 27.8281 18.6667ZM27.8281 32C27.8281 33.1051 28.2671 34.1649 29.0485 34.9463C29.8299 35.7277 30.8897 36.1667 31.9948 36.1667C33.0999 36.1667 34.1597 35.7277 34.9411 34.9463C35.7225 34.1649 36.1615 33.1051 36.1615 32C36.1615 30.8949 35.7225 29.8351 34.9411 29.0537C34.1597 28.2723 33.0999 27.8333 31.9948 27.8333C30.8897 27.8333 29.8299 28.2723 29.0485 29.0537C28.2671 29.8351 27.8281 30.8949 27.8281 32ZM27.8281 45.3333C27.8281 46.4384 28.2671 47.4982 29.0485 48.2796C29.8299 49.061 30.8897 49.5 31.9948 49.5C33.0999 49.5 34.1597 49.061 34.9411 48.2796C35.7225 47.4982 36.1615 46.4384 36.1615 45.3333C36.1615 44.2283 35.7225 43.1685 34.9411 42.3871C34.1597 41.6056 33.0999 41.1667 31.9948 41.1667C30.8897 41.1667 29.8299 41.6056 29.0485 42.3871C28.2671 43.1685 27.8281 44.2283 27.8281 45.3333Z" stroke="#0370F0" stroke-width="3" stroke-linecap="round" stroke-linejoin="round"/>
</svg>
